<?xml version="1.0" encoding="UTF-8"?>
<svg width="400" height="400" viewBox="0 0 400 400" fill="none" xmlns="http://www.w3.org/2000/svg">
    <!-- Background -->
    <rect width="400" height="400" fill="#F3F4F6"/>
    
    <!-- Mug Shape -->
    <path d="M120 100 H280 V300 Q280,320 260,320 H140 Q120,320 120,300 V100 Z" 
          fill="white" 
          stroke="#E5E7EB" 
          stroke-width="2"/>
    
    <!-- Handle -->
    <path d="M280 140 Q320,140 320,200 Q320,260 280,260" 
          fill="none" 
          stroke="#E5E7EB" 
          stroke-width="2"/>
    
    <!-- Upload Icon -->
    <g transform="translate(160, 160)">
        <!-- Cloud outline -->
        <path d="M40 20 Q40,0 60,0 Q80,0 80,20 Q100,20 100,40 Q100,60 80,60 H20 Q0,60 0,40 Q0,20 20,20 Q20,10 40,20" 
              fill="none" 
              stroke="#9CA3AF" 
              stroke-width="2"/>
        
        <!-- Upload arrow -->
        <path d="M50 25 V45 M40 35 L50 25 L60 35" 
              stroke="#9CA3AF" 
              stroke-width="2" 
              stroke-linecap="round" 
              stroke-linejoin="round"/>
    </g>
    
    <!-- Text -->
    <text x="200" 
          y="260" 
          text-anchor="middle" 
          fill="#6B7280" 
          font-family="sans-serif" 
          font-size="14">
        Clique para adicionar imagem
    </text>
</svg>